HIERARCHY
ROOT Hips
{
    OFFSET 0.000000 0.000000 0.000000
    CHANNELS 6 Xposition Yposition Zposition Zrotation Xrotation Yrotation
    JOINT Spine
    {
        OFFSET -0.000000 0.068295 0.000000
        CHANNELS 3 Zrotation Xrotation Yrotation
        JOINT Spine1
        {
            OFFSET -0.000000 0.198479 0.000000
            CHANNELS 3 Zrotation Xrotation Yrotation
            JOINT Neck
            {
                OFFSET -0.000000 0.215136 0.000000
                CHANNELS 3 Zrotation Xrotation Yrotation
                JOINT Head
                {
                    OFFSET -0.000000 0.090366 0.016657
                    CHANNELS 3 Zrotation Xrotation Yrotation
                    End Site
                    {
                        OFFSET -0.000000 0.166573 0.000000
                    }
                }
            }
            JOINT LeftShoulder
            {
                OFFSET 0.033522 0.175145 -0.001055
                CHANNELS 3 Zrotation Xrotation Yrotation
                JOINT LeftArm
                {
                    OFFSET 0.121214 0.000000 0.000000
                    CHANNELS 3 Zrotation Xrotation Yrotation
                    JOINT LeftForeArm
                    {
                        OFFSET 0.261115 0.000000 0.000000
                        CHANNELS 3 Zrotation Xrotation Yrotation
                        JOINT LeftHand
                        {
                            OFFSET 0.230096 0.000000 0.000000
                            CHANNELS 3 Zrotation Xrotation Yrotation
                            End Site
                            {
                                OFFSET 0.000000 -0.124930 0.000000
                            }
                        }
                    }
                }
            }
            JOINT RightShoulder
            {
                OFFSET -0.033103 0.175145 -0.001055
                CHANNELS 3 Zrotation Xrotation Yrotation
                JOINT RightArm
                {
                    OFFSET -0.121214 0.000000 0.000000
                    CHANNELS 3 Zrotation Xrotation Yrotation
                    JOINT RightForeArm
                    {
                        OFFSET -0.261115 0.000000 0.000000
                        CHANNELS 3 Zrotation Xrotation Yrotation
                        JOINT RightHand
                        {
                            OFFSET -0.230096 0.000000 0.000000
                            CHANNELS 3 Zrotation Xrotation Yrotation
                            End Site
                            {
                                OFFSET -0.000000 -0.124930 0.000000
                            }
                        }
                    }
                }
            }
        }
    }
    JOINT LeftUpLeg
    {
        OFFSET 0.083287 0.000000 0.000000
        CHANNELS 3 Zrotation Xrotation Yrotation
        JOINT LeftLeg
        {
            OFFSET -0.000000 -0.281128 0.000000
            CHANNELS 3 Zrotation Xrotation Yrotation
            JOINT LeftFoot
            {
                OFFSET -0.000000 -0.491911 0.000000
                CHANNELS 3 Zrotation Xrotation Yrotation
                JOINT LeftToeBase
                {
                    OFFSET -0.000000 -0.054136 0.124930
                    CHANNELS 3 Zrotation Xrotation Yrotation
                    End Site
                    {
                        OFFSET -0.000000 0.000000 0.033315
                    }
                }
            }
        }
    }
    JOINT RightUpLeg
    {
        OFFSET -0.083287 0.000000 0.000000
        CHANNELS 3 Zrotation Xrotation Yrotation
        JOINT RightLeg
        {
            OFFSET -0.000000 -0.281128 0.000000
            CHANNELS 3 Zrotation Xrotation Yrotation
            JOINT RightFoot
            {
                OFFSET -0.000000 -0.491911 0.000000
                CHANNELS 3 Zrotation Xrotation Yrotation
                JOINT RightToeBase
                {
                    OFFSET -0.000000 -0.054136 0.124930
                    CHANNELS 3 Zrotation Xrotation Yrotation
                    End Site
                    {
                        OFFSET -0.000000 0.000000 0.033315
                    }
                }
            }
        }
    }
}
MOTION
Frames:    14
Frame Time:    0.010000
0.037102    0.808404    0.054794    -7.238427    -0.246649    -99.556915    -1.584613    3.043975    1.032969    0.024722    3.580413    0.329567    -1.718951    -7.335879    1.617998    1.631878    4.829370    1.277479    14.641500    -0.074458    -0.737069    -17.418789    0.072932    -3.108756    0.824013    4.615887    -1.198945    97.496880    -4.793704    -4.310227    -14.640587    -4.909795    2.291558    18.846115    10.825859    3.270841    -2.130411    -6.191964    -7.070426    -92.360657    -2.817911    -6.380886    -6.876506    17.408819    4.236947    0.292446    -1.339744    3.391666    8.850921    -15.203526    49.535648    0.000000    0.000000    0.000000    -2.180564    14.141086    -2.027664    0.948046    1.493202    1.155570    -3.998281    -21.667671    -30.005674    0.000000    0.000000    0.000000    
0.036894    0.808404    0.054697    -7.244008    -0.255141    -99.532928    -1.597005    3.036650    1.017520    0.026452    3.581738    0.324229    -1.681206    -7.329497    1.586438    1.625032    4.850005    1.248195    14.636936    -0.085503    -0.737699    -17.439587    0.109179    -3.112136    0.823514    4.577927    -1.230672    97.533531    -4.758983    -4.273254    -14.669515    -5.002223    2.293607    18.903219    10.879163    3.235161    -2.128934    -6.172599    -7.054966    -92.065094    -2.929557    -6.355884    -6.875034    17.435097    4.235175    0.312838    -1.356615    3.397230    8.913799    -15.292356    49.811459    0.000000    0.000000    0.000000    -2.128330    14.211960    -2.109559    0.886183    1.383432    1.060849    -3.879541    -21.763620    -29.855143    0.000000    0.000000    0.000000    
0.036710    0.808374    0.054614    -7.238665    -0.265917    -99.508774    -1.602042    3.030276    1.008948    0.019102    3.572626    0.321606    -1.487960    -7.151369    1.384338    1.004144    4.569513    1.158328    14.627622    -0.089642    -0.741642    -17.453363    0.169877    -3.130241    0.832970    4.518559    -1.266753    97.520966    -4.611249    -4.224497    -14.657762    -4.984427    2.268574    18.901672    10.866367    3.268981    -2.145604    -6.210363    -7.025226    -92.113312    -2.828561    -6.393488    -6.888317    17.450439    4.241183    0.310493    -1.363757    3.376750    8.837297    -15.168703    49.535812    0.000000    0.000000    0.000000    -2.136940    14.241351    -2.105854    0.919324    1.348366    0.992710    -3.862489    -21.757389    -29.845032    0.000000    0.000000    0.000000    
0.036524    0.808343    0.054511    -7.227150    -0.268772    -99.474548    -1.605299    3.015210    0.990891    0.019770    3.557071    0.315569    -1.430218    -7.119416    1.342619    1.006642    4.557394    1.118515    14.628194    -0.098881    -0.750519    -17.481823    0.223194    -3.142558    0.842628    4.504775    -1.263520    97.511803    -4.654072    -4.208349    -14.684006    -5.030439    2.248547    18.957073    10.887559    3.277726    -2.168587    -6.196502    -7.000740    -92.236984    -2.862560    -6.384270    -6.865870    17.458076    4.222533    0.308333    -1.399746    3.462446    8.865988    -15.390945    49.747047    0.000000    0.000000    0.000000    -2.114858    14.267763    -2.111077    0.890236    1.328697    1.009709    -3.883509    -21.752779    -29.856133    0.000000    0.000000    0.000000    
0.036308    0.808326    0.054410    -7.234220    -0.279590    -99.444237    -1.620888    3.003244    0.981804    0.014963    3.567898    0.312755    -1.376264    -7.101954    1.301237    1.040770    4.538959    1.073743    14.632521    -0.113172    -0.762420    -17.513165    0.250888    -3.161040    0.847349    4.522305    -1.259245    97.508255    -4.660391    -4.225624    -14.680988    -5.032461    2.222845    18.968693    10.852610    3.293772    -2.112602    -6.112225    -6.981242    -92.405060    -2.836273    -6.299927    -6.866985    17.488371    4.228246    0.310719    -1.413802    3.427461    8.877347    -15.355154    49.772072    0.000000    0.000000    0.000000    -2.117737    14.317873    -2.121883    0.896830    1.293507    1.011203    -3.896134    -21.755255    -29.874020    0.000000    0.000000    0.000000    
0.036158    0.808300    0.054309    -7.211425    -0.291398    -99.407990    -1.629562    2.969709    0.964844    0.003098    3.569737    0.307420    -1.418061    -7.233114    1.434340    1.533230    4.735667    1.124805    14.658660    -0.127347    -0.781050    -17.560482    0.298945    -3.165822    0.860103    4.555182    -1.239171    97.478752    -4.701314    -4.257014    -14.683214    -5.041899    2.205637    18.986397    10.743420    3.290097    -2.103344    -6.087304    -6.897833    -92.391777    -2.814184    -6.272114    -6.862835    17.478952    4.206590    0.298045    -1.406257    3.410136    8.804605    -15.253592    49.468819    0.000000    0.000000    0.000000    -2.111847    14.325068    -2.132786    0.918387    1.261759    0.939032    -3.861104    -21.774061    -29.831274    0.000000    0.000000    0.000000    
0.035989    0.808297    0.054216    -7.208528    -0.298109    -99.362274    -1.635676    2.952899    0.940829    -0.004337    3.577405    0.299816    -1.409382    -7.321830    1.474198    1.769914    4.878343    1.125472    14.664380    -0.125662    -0.798469    -17.601048    0.369719    -3.194640    0.886015    4.510283    -1.196214    97.438980    -4.697963    -4.213944    -14.666098    -5.042623    2.209408    18.986378    10.732553    3.286088    -2.106527    -6.096232    -6.893456    -92.378998    -2.830530    -6.281178    -6.881345    17.515232    4.197742    0.361840    -1.478639    3.324276    8.810815    -15.360204    49.532940    0.000000    0.000000    0.000000    -2.091687    14.356156    -2.173791    0.904214    1.238794    0.919405    -3.861370    -21.773649    -29.837809    0.000000    0.000000    0.000000    
0.035820    0.808277    0.054089    -7.194172    -0.297856    -99.318871    -1.639244    2.927076    0.920068    0.005776    3.596990    0.292524    -1.322396    -7.304342    1.427603    1.638018    4.795658    1.106676    14.648631    -0.147673    -0.802666    -17.615562    0.388371    -3.213139    0.864975    4.533614    -1.172373    97.427261    -4.714016    -4.236302    -14.648404    -5.020140    2.193241    18.962067    10.701398    3.299824    -2.106566    -6.115229    -6.867379    -92.344543    -2.862474    -6.299499    -6.857504    17.515165    4.200235    0.358275    -1.481489    3.329206    8.789350    -15.393718    49.478333    0.000000    0.000000    0.000000    -2.069075    14.379865    -2.179896    0.904764    1.212230    0.896690    -3.867358    -21.757006    -29.857584    0.000000    0.000000    0.000000    
0.035650    0.808258    0.053996    -7.181278    -0.306633    -99.279068    -1.651279    2.900821    0.902356    0.016183    3.610291    0.286281    -1.280577    -7.337430    1.472463    1.742450    4.798275    1.138436    14.654699    -0.213038    -0.847978    -17.670469    0.478329    -3.172575    0.880163    4.503456    -1.152674    97.435188    -4.683411    -4.207801    -14.683703    -5.048193    2.177944    19.006950    10.672027    3.305945    -2.111348    -6.102559    -6.867424    -92.321945    -2.915691    -6.287640    -6.843170    17.523716    4.178169    0.373316    -1.502932    3.267144    8.870240    -15.481040    49.821095    0.000000    0.000000    0.000000    -1.997367    14.387365    -2.266193    0.788856    1.213091    0.874072    -3.816937    -21.776033    -29.748625    0.000000    0.000000    0.000000    
0.035500    0.808245    0.053908    -7.171133    -0.318101    -99.232475    -1.660672    2.874038    0.876935    0.005494    3.650784    0.278334    -1.105713    -7.335087    1.355769    1.364993    4.723372    1.094745    14.652085    -0.195848    -0.845366    -17.606886    0.480462    -3.201463    0.708074    4.492459    -1.132194    97.490700    -4.680964    -4.192839    -14.666467    -5.056900    2.162414    19.013878    10.707307    3.329564    -2.132113    -6.126136    -6.895863    -92.319519    -2.931807    -6.313239    -6.851037    17.531805    4.162757    0.379857    -1.510859    3.255613    8.778232    -15.409078    49.500725    0.000000    0.000000    0.000000    -2.002687    14.418324    -2.277984    0.828732    1.165350    0.838834    -3.826425    -21.772171    -29.797417    0.000000    0.000000    0.000000    
0.035358    0.808225    0.053798    -7.153936    -0.322516    -99.191490    -1.666077    2.841750    0.859380    0.012083    3.683341    0.272337    -1.050707    -7.412258    1.357163    1.357858    4.775794    1.101261    14.650157    -0.184961    -0.869009    -17.637959    0.450481    -3.209099    0.695998    4.478269    -1.106138    97.500229    -4.719217    -4.175469    -14.664638    -5.072862    2.149972    19.034954    10.780096    3.349944    -2.176033    -6.149429    -6.945380    -92.318451    -2.947325    -6.340354    -6.834597    17.527893    4.153148    0.383793    -1.508542    3.195056    8.823450    -15.393992    49.545795    0.000000    0.000000    0.000000    -1.992363    14.422428    -2.246944    0.837077    1.161108    0.794401    -3.816681    -21.777321    -29.792400    0.000000    0.000000    0.000000    
0.035225    0.808223    0.053682    -7.149383    -0.327933    -99.146881    -1.674762    2.827394    0.835999    0.017873    3.704463    0.264441    -1.004729    -7.447944    1.362571    1.377371    4.763177    1.107054    14.643145    -0.193270    -0.887589    -17.648584    0.424454    -3.207181    0.649598    4.489776    -1.098015    97.476570    -4.707256    -4.188257    -14.665161    -5.090324    2.170918    19.057356    10.750758    3.312041    -2.192693    -6.158654    -6.916687    -92.340569    -2.915206    -6.349976    -6.825574    17.544012    4.133368    0.387721    -1.530800    3.225022    8.787561    -15.407523    49.500645    0.000000    0.000000    0.000000    -1.969678    14.449779    -2.272899    0.806682    1.147697    0.826871    -3.856952    -21.761480    -29.831591    0.000000    0.000000    0.000000    
0.035068    0.808215    0.053580    -7.140945    -0.339018    -99.107346    -1.698136    2.806286    0.824448    0.046151    3.728993    0.259587    -0.964636    -7.497379    1.357530    1.365857    4.771042    1.106822    14.613602    -0.174860    -0.912135    -17.648842    0.381046    -3.230793    0.600541    4.505659    -1.063518    97.534660    -4.786490    -4.195874    -14.683497    -5.090417    2.176682    19.080299    10.757925    3.291724    -2.223038    -6.200730    -6.907910    -92.391319    -2.872481    -6.394096    -6.823896    17.546656    4.126565    0.399424    -1.530812    3.193792    8.820598    -15.403843    49.542820    0.000000    0.000000    0.000000    -1.973073    14.473187    -2.279737    0.843672    1.113076    0.762972    -3.832815    -21.758907    -29.836266    0.000000    0.000000    0.000000    
0.034938    0.808192    0.053455    -7.133554    -0.340830    -99.071938    -1.700711    2.779934    0.806007    0.040997    3.769543    0.253672    -0.897121    -7.535413    1.296938    1.245792    4.791061    1.069154    14.620753    -0.191599    -0.924349    -17.675407    0.413297    -3.249220    0.588464    4.600459    -0.983227    97.626144    -4.762207    -4.287919    -14.681356    -5.111988    2.180774    19.097191    10.734429    3.278137    -2.224674    -6.172034    -6.896141    -92.399620    -2.874781    -6.365528    -6.808177    17.555861    4.119038    0.402690    -1.543032    3.142522    8.803597    -15.437155    49.544510    0.000000    0.000000    0.000000    -1.955737    14.479838    -2.271883    0.822614    1.128294    0.786309    -3.856353    -21.766308    -29.848036    0.000000    0.000000    0.000000    
